<svg width="386" height="386" viewBox="0 0 386 386" fill="none" xmlns="http://www.w3.org/2000/svg">
<circle cx="193" cy="193" r="193" fill="#D9D9D9"/>
<path d="M59 84.125H80.1875H104.688L149.375 128.25L126.25 151.375L59 84.125Z" fill="black"/>
<path d="M329.562 308.438H308.375H283.875L239.187 264.312L262.312 241.187L329.562 308.438Z" fill="black"/>
<rect x="137.188" y="162.241" width="110.369" height="32.6656" transform="rotate(-45 137.188 162.241)" fill="black"/>
<rect x="205.188" y="162.089" width="110.17" height="32.6656" transform="rotate(-45 205.188 162.089)" fill="black"/>
<rect x="172.286" y="151.188" width="110.946" height="32.6656" transform="rotate(45 172.286 151.188)" fill="black"/>
<rect x="250.884" y="229.431" width="110.946" height="32.8704" transform="rotate(135.002 250.884 229.431)" fill="black"/>
<rect x="183.196" y="229.744" width="110.946" height="31.9067" transform="rotate(135.002 183.196 229.744)" fill="black"/>
<path d="M173.161 308.058H60.1607L69.6875 298.187L91.6875 276.058H173.161V308.058Z" fill="black"/>
<path d="M215.188 84.1875H329.188L313.188 100.855L297.188 116.188H215.188V84.1875Z" fill="black"/>
</svg>
